<svg width="198" height="198" viewBox="0 0 198 198" fill="none" xmlns="http://www.w3.org/2000/svg">
<path opacity="0.1" d="M0 115.208V82.792H34.1681L65.708 88.4867L67.8982 82.792L41.615 64.8319L17.5221 40.3009L40.3009 17.5221L64.8319 41.6151L82.792 67.8982L88.4867 65.708L82.792 34.1681V0H115.208V34.1681L109.513 65.708L115.208 67.8982L133.168 41.6151L157.699 17.5221L180.478 40.3009L156.385 64.8319L130.102 82.792L132.292 88.4867L163.832 82.792H198V115.208H163.832L132.292 109.513L130.102 115.208L156.385 133.168L180.478 157.699L157.699 180.478L133.168 156.385L115.208 130.102L109.513 132.292L115.208 163.832V198H82.792V163.832L88.4867 132.292L82.792 130.102L64.8319 156.385L40.3009 180.478L17.5221 157.699L41.615 133.168L67.8982 115.208L65.708 109.513L34.1681 115.208H0Z" fill="#92FF80"/>
</svg>
