<svg width="950" height="500" viewBox="0 0 950 500" fill="none" xmlns="http://www.w3.org/2000/svg">
<path opacity="0.25" fill-rule="evenodd" clip-rule="evenodd" d="M679.998 393.132C634.8 457.744 559.835 500 475 500C390.165 500 315.2 457.744 270.002 393.132C255.796 397.594 240.679 400 225 400C168.511 400 119.315 368.774 93.7316 322.642C87.7442 324.181 81.4677 325 75 325C33.5786 325 0 291.421 0 250C0 208.579 33.5786 175 75 175C81.4677 175 87.7442 175.819 93.7316 177.358C119.315 131.226 168.511 100 225 100C240.679 100 255.796 102.406 270.002 106.868C315.2 42.2556 390.165 0 475 0C559.835 0 634.8 42.2556 679.998 106.868C694.204 102.406 709.321 100 725 100C781.489 100 830.685 131.226 856.268 177.358C862.256 175.819 868.532 175 875 175C916.421 175 950 208.579 950 250C950 291.421 916.421 325 875 325C868.532 325 862.256 324.181 856.268 322.642C830.685 368.774 781.489 400 725 400C709.321 400 694.204 397.594 679.998 393.132ZM679.199 390.777C706.822 350.785 723 302.282 723 250C723 197.718 706.822 149.215 679.199 109.223C619.878 128.51 577 184.247 577 250C577 315.753 619.878 371.49 679.199 390.777ZM857.258 320.829C862.937 322.247 868.881 323 875 323C915.317 323 948 290.317 948 250C948 209.683 915.317 177 875 177C868.881 177 862.937 177.753 857.258 179.171C868.579 200.266 875 224.383 875 250C875 275.617 868.579 299.734 857.258 320.829ZM855.269 179.698C866.579 200.611 873 224.556 873 250C873 275.444 866.579 299.389 855.269 320.302C824.538 311.695 802 283.48 802 250C802 216.52 824.538 188.305 855.269 179.698ZM854.28 177.899C822.936 186.89 800 215.766 800 250C800 284.234 822.936 313.11 854.28 322.101C828.971 367.384 780.561 398 725 398C709.749 398 695.036 395.693 681.192 391.409C708.827 351.192 725 302.484 725 250C725 197.515 708.827 148.808 681.192 108.591C695.036 104.307 709.749 102 725 102C780.561 102 828.971 132.616 854.28 177.899ZM225 398C169.439 398 121.029 367.384 95.72 322.101C127.064 313.11 150 284.234 150 250C150 215.766 127.064 186.89 95.72 177.899C121.029 132.616 169.439 102 225 102C240.251 102 254.964 104.307 268.808 108.591C241.173 148.808 225 197.515 225 250C225 302.484 241.173 351.192 268.808 391.409C254.964 395.693 240.251 398 225 398ZM148 250C148 216.52 125.462 188.305 94.7309 179.698C83.421 200.611 77 224.556 77 250C77 275.444 83.421 299.389 94.7309 320.302C125.462 311.695 148 283.48 148 250ZM75 250C75 224.383 81.4214 200.266 92.7424 179.171C87.0625 177.753 81.1192 177 75 177C34.6832 177 2 209.683 2 250C2 290.317 34.6832 323 75 323C81.1192 323 87.0625 322.247 92.7424 320.829C81.4214 299.734 75 275.617 75 250ZM678.004 392.491C633.132 456.302 558.936 498 475 498C391.064 498 316.868 456.302 271.996 392.491C331.819 372.771 375 316.428 375 250C375 183.572 331.819 127.229 271.996 107.509C316.868 43.6981 391.064 2 475 2C558.936 2 633.132 43.6981 678.004 107.509C618.181 127.229 575 183.572 575 250C575 316.428 618.181 372.771 678.004 392.491ZM227 250C227 302.282 243.178 350.785 270.801 390.777C330.122 371.49 373 315.753 373 250C373 184.247 330.122 128.51 270.801 109.223C243.178 149.215 227 197.718 227 250Z" fill="white"/>
</svg>
