<svg width="170" height="146" viewBox="0 0 170 146" fill="none" xmlns="http://www.w3.org/2000/svg">
<path opacity="0.1" d="M15.8047 85.7468L75.8027 141.76C78.293 144.085 81.5801 145.38 85 145.38C88.4199 145.38 91.707 144.085 94.1973 141.76L154.195 85.7468C164.289 76.3503 170 63.1686 170 49.3894V47.4636C170 24.2546 153.232 4.46552 130.355 0.647164C115.215 -1.87627 99.8086 3.07099 88.9844 13.8952L85 17.8796L81.0156 13.8952C70.1914 3.07099 54.7852 -1.87627 39.6445 0.647164C16.7676 4.46552 0 24.2546 0 47.4636V49.3894C0 63.1686 5.71094 76.3503 15.8047 85.7468Z" fill="#FF4040"/>
</svg>
