<svg width="142" height="212" viewBox="0 0 142 212" fill="none" xmlns="http://www.w3.org/2000/svg">
<path opacity="0.1" fill-rule="evenodd" clip-rule="evenodd" d="M142 49.4667C142 22.147 119.749 0 92.3 0H49.7C22.2514 0 0 22.147 0 49.4667V162.533C0 189.853 22.2515 212 49.7 212H92.3C119.749 212 142 189.853 142 162.533V49.4667ZM83.78 48.0533C83.78 41.0283 78.0582 35.3333 71 35.3333C63.9418 35.3333 58.22 41.0283 58.22 48.0533V70.6667C58.22 77.6917 63.9418 83.3867 71 83.3867C78.0582 83.3867 83.78 77.6917 83.78 70.6667V48.0533Z" fill="#FFA9A9"/>
</svg>
